<svg xmlns="http://www.w3.org/2000/svg" id="canvas" viewBox="625.425 403.899 773.468 405.944"><path d="M 724.33,454.14 C 722.98 457.05, 723.52 461.45, 721.91 469.48 C 720.31 477.51, 719.02 482.98, 716.31 494.29 C 713.60 505.61, 711.91 513.12, 708.34 526.04 C 704.77 538.96, 702.66 546.01, 698.45 558.90 C 694.24 571.79, 691.70 578.64, 687.29 590.49 C 682.88 602.35, 680.49 608.32, 676.38 618.16 C 672.28 628.01, 670.16 632.86, 666.75 639.70 C 663.33 646.55, 661.39 648.79, 659.31 652.39 C 657.23 655.99, 656.61 656.45, 656.34 657.70 C 656.08 658.95, 657.44 658.93, 657.97 658.64 C 658.49 658.34, 659.73 656.67, 658.96 656.22 C 658.19 655.77, 654.83 655.64, 654.10 656.39 C 653.37 657.15, 654.19 659.13, 655.31 660.00 C 656.43 660.86, 657.94 661.71, 659.69 660.72 C 661.44 659.72, 661.95 658.92, 664.05 655.04 C 666.16 651.16, 667.19 648.44, 670.22 641.30 C 673.25 634.15, 675.28 629.28, 679.20 619.31 C 683.12 609.33, 685.46 603.34, 689.81 591.42 C 694.16 579.51, 696.71 572.64, 700.98 559.72 C 705.24 546.81, 707.44 539.76, 711.15 526.84 C 714.87 513.91, 716.68 506.41, 719.56 495.09 C 722.43 483.78, 723.72 478.29, 725.53 470.25 C 727.35 462.21, 728.89 458.14, 728.65 454.92 C 728.41 451.69, 725.68 451.23, 724.33 454.14" style="stroke: white; fill: white;"/><path d="M 680.43,450.56 C 682.17 450.02, 682.52 448.20, 685.16 445.32 C 687.80 442.44, 688.96 440.05, 693.61 436.16 C 698.26 432.27, 701.45 429.57, 708.41 425.88 C 715.37 422.19, 719.79 420.44, 728.41 417.71 C 737.03 414.98, 742.26 413.62, 751.52 412.23 C 760.77 410.85, 765.96 410.53, 774.67 410.79 C 783.38 411.05, 787.90 411.71, 795.06 413.53 C 802.23 415.35, 805.89 416.87, 810.52 419.91 C 815.15 422.94, 816.80 424.60, 818.21 428.71 C 819.62 432.81, 819.74 435.08, 817.59 440.44 C 815.43 445.80, 813.10 449.13, 807.43 455.51 C 801.76 461.89, 797.36 465.77, 789.23 472.35 C 781.11 478.92, 775.51 482.60, 766.81 488.38 C 758.10 494.17, 752.78 496.99, 745.69 501.26 C 738.60 505.53, 734.94 506.69, 731.35 509.72 C 727.76 512.75, 726.94 514.37, 727.74 516.42 C 728.53 518.47, 730.75 519.30, 735.34 519.96 C 739.92 520.62, 743.54 519.64, 750.65 519.71 C 757.77 519.78, 762.58 519.47, 770.91 520.32 C 779.25 521.18, 784.38 521.74, 792.31 523.98 C 800.25 526.23, 804.59 527.77, 810.61 531.54 C 816.62 535.32, 819.35 537.71, 822.40 542.87 C 825.45 548.03, 826.29 550.96, 825.84 557.34 C 825.40 563.73, 824.40 567.41, 820.17 574.81 C 815.93 582.21, 812.63 586.44, 804.68 594.33 C 796.73 602.23, 791.45 606.60, 780.42 614.29 C 769.38 621.98, 762.34 626.07, 749.50 632.77 C 736.66 639.47, 729.13 642.70, 716.21 647.77 C 703.30 652.84, 696.33 655.07, 684.91 658.12 C 673.50 661.18, 667.80 662.12, 659.13 663.04 C 650.46 663.95, 646.50 663.53, 641.56 662.70 C 636.63 661.87, 635.77 660.58, 634.47 658.88 C 633.16 657.18, 633.12 657.00, 635.02 654.19 C 636.92 651.38, 638.44 649.04, 643.97 644.84 C 649.50 640.64, 653.73 637.90, 662.67 633.19 C 671.61 628.48, 677.21 625.91, 688.68 621.29 C 700.16 616.66, 706.90 614.44, 720.06 610.05 C 733.23 605.66, 740.55 603.54, 754.52 599.33 C 768.49 595.12, 775.88 593.08, 789.90 589.01 C 803.92 584.94, 811.24 583.08, 824.61 578.96 C 837.98 574.84, 844.77 572.67, 856.75 568.42 C 868.72 564.17, 874.64 561.97, 884.49 557.70 C 894.34 553.43, 898.80 551.14, 906.00 547.07 C 913.20 543.00, 916.18 541.03, 920.50 537.37 C 924.81 533.71, 926.92 532.14, 927.58 528.75 C 928.24 525.37, 926.75 522.11, 923.80 520.43 C 920.84 518.75, 917.92 519.03, 912.80 520.33 C 907.69 521.63, 904.65 523.27, 898.23 526.91 C 891.80 530.56, 887.64 533.08, 880.66 538.55 C 873.69 544.02, 869.67 547.61, 863.34 554.25 C 857.00 560.90, 853.76 564.81, 848.98 571.79 C 844.20 578.78, 841.91 582.61, 839.44 589.18 C 836.97 595.75, 836.22 599.08, 836.63 604.63 C 837.03 610.18, 838.03 613.18, 841.47 616.94 C 844.91 620.70, 847.86 622.16, 853.84 623.42 C 859.82 624.69, 863.58 624.44, 871.38 623.27 C 879.18 622.11, 883.76 620.82, 892.86 617.60 C 901.95 614.39, 907.28 611.94, 916.86 607.18 C 926.43 602.41, 931.65 599.24, 940.74 593.79 C 949.84 588.34, 954.52 585.20, 962.32 579.93 C 970.12 574.66, 973.87 571.70, 979.74 567.44 C 985.62 563.18, 988.54 561.56, 991.69 558.62 C 994.84 555.69, 995.73 554.21, 995.49 552.78 C 995.26 551.35, 992.69 550.12, 990.50 551.48 C 988.31 552.83, 987.42 555.40, 984.55 559.55 C 981.68 563.70, 979.81 566.84, 976.17 572.24 C 972.53 577.63, 970.23 581.18, 966.35 586.51 C 962.47 591.85, 960.12 594.78, 956.75 598.89 C 953.38 603.01, 950.71 604.23, 949.49 607.09 C 948.27 609.96, 949.13 611.93, 950.66 613.21 C 952.19 614.48, 954.41 615.17, 957.14 613.48 C 959.88 611.79, 960.73 609.03, 964.33 604.77 C 967.92 600.51, 970.27 597.45, 975.11 592.17 C 979.95 586.89, 983.06 583.57, 988.53 578.38 C 994.01 573.19, 997.23 570.41, 1002.49 566.22 C 1007.76 562.02, 1010.50 560.05, 1014.85 557.41 C 1019.20 554.77, 1021.17 554.00, 1024.24 553.00 C 1027.31 552.01, 1028.23 552.18, 1030.20 552.43 C 1032.17 552.68, 1032.41 553.10, 1034.09 554.27 C 1035.77 555.45, 1036.35 556.68, 1038.61 558.29 C 1040.86 559.89, 1042.41 560.77, 1045.36 562.30 C 1048.31 563.83, 1049.93 564.65, 1053.36 565.94 C 1056.80 567.24, 1058.72 567.90, 1062.54 568.78 C 1066.37 569.67, 1068.57 569.92, 1072.51 570.35 C 1076.45 570.78, 1078.66 570.73, 1082.23 570.95 C 1085.81 571.17, 1088.06 571.61, 1090.37 571.46 C 1092.68 571.31, 1093.40 570.10, 1093.77 570.20 C 1094.15 570.29, 1093.15 570.03, 1092.24 571.93 C 1091.33 573.83, 1091.19 575.92, 1089.23 579.70 C 1087.26 583.49, 1085.42 586.34, 1082.42 590.86 C 1079.43 595.37, 1077.31 598.16, 1074.27 602.27 C 1071.23 606.38, 1068.74 608.16, 1067.23 611.40 C 1065.72 614.64, 1065.67 616.54, 1066.71 618.48 C 1067.75 620.43, 1069.85 621.78, 1072.44 621.12 C 1075.04 620.45, 1076.23 618.58, 1079.68 615.17 C 1083.12 611.75, 1085.19 608.89, 1089.67 604.05 C 1094.16 599.22, 1097.04 596.11, 1102.10 590.99 C 1107.16 585.87, 1110.12 582.98, 1114.99 578.45 C 1119.85 573.92, 1122.41 571.58, 1126.44 568.36 C 1130.47 565.13, 1132.45 564.15, 1135.14 562.31 C 1137.83 560.48, 1138.71 559.78, 1139.89 559.18 C 1141.06 558.57, 1140.54 558.49, 1141.01 559.28 C 1141.49 560.08, 1141.02 561.33, 1142.26 563.16 C 1143.50 564.99, 1144.40 566.79, 1147.21 568.44 C 1150.02 570.10, 1152.24 570.73, 1156.32 571.42 C 1160.40 572.11, 1162.72 572.24, 1167.60 571.91 C 1172.48 571.57, 1175.20 571.10, 1180.71 569.75 C 1186.23 568.40, 1189.24 567.32, 1195.18 565.16 C 1201.12 562.99, 1204.56 561.42, 1210.40 558.91 C 1216.25 556.39, 1219.39 554.83, 1224.40 552.58 C 1229.41 550.33, 1232.62 549.58, 1235.46 547.67 C 1238.30 545.75, 1238.98 544.12, 1238.62 543.01 C 1238.27 541.90, 1236.02 540.67, 1233.69 542.14 C 1231.37 543.60, 1230.28 546.21, 1227.01 550.34 C 1223.74 554.46, 1221.08 557.49, 1217.34 562.77 C 1213.59 568.06, 1211.24 571.42, 1208.29 576.75 C 1205.34 582.09, 1203.85 584.63, 1202.57 589.43 C 1201.30 594.23, 1200.65 596.85, 1201.91 600.74 C 1203.18 604.62, 1205.08 606.91, 1208.91 608.84 C 1212.74 610.78, 1215.61 610.80, 1221.06 610.43 C 1226.51 610.07, 1229.47 609.13, 1236.15 607.02 C 1242.82 604.90, 1246.81 603.27, 1254.43 599.86 C 1262.06 596.45, 1266.44 594.26, 1274.28 589.98 C 1282.12 585.70, 1286.40 582.96, 1293.62 578.47 C 1300.84 573.98, 1305.13 571.04, 1310.37 567.55 C 1315.61 564.06, 1318.26 562.86, 1319.82 561.02 C 1321.39 559.19, 1319.68 557.00, 1318.20 558.35 C 1316.72 559.70, 1316.00 562.10, 1312.42 567.78 C 1308.84 573.45, 1305.94 577.87, 1300.31 586.72 C 1294.67 595.57, 1291.11 601.12, 1284.24 612.02 C 1277.36 622.91, 1273.44 629.18, 1265.93 641.21 C 1258.42 653.24, 1254.34 659.77, 1246.70 672.16 C 1239.06 684.56, 1235.07 691.14, 1227.74 703.18 C 1220.42 715.21, 1216.94 721.42, 1210.07 732.34 C 1203.20 743.27, 1199.80 748.66, 1193.39 757.80 C 1186.97 766.93, 1183.78 771.16, 1177.98 778.03 C 1172.18 784.90, 1169.36 787.87, 1164.39 792.16 C 1159.41 796.46, 1156.56 797.87, 1153.09 799.51 C 1149.63 801.14, 1148.55 800.72, 1147.06 800.34 C 1145.57 799.96, 1145.90 800.10, 1145.64 797.61 C 1145.38 795.11, 1144.56 793.10, 1145.77 787.85 C 1146.98 782.60, 1147.89 778.79, 1151.70 771.37 C 1155.50 763.95, 1158.15 759.37, 1164.81 750.75 C 1171.48 742.13, 1175.73 737.39, 1185.02 728.27 C 1194.31 719.15, 1200.02 714.27, 1211.27 705.17 C 1222.52 696.07, 1228.83 691.33, 1241.26 682.75 C 1253.70 674.17, 1260.69 669.92, 1273.43 662.26 C 1286.18 654.59, 1292.83 650.81, 1304.99 644.42 C 1317.14 638.03, 1323.54 635.12, 1334.20 630.31 C 1344.87 625.51, 1349.74 623.53, 1358.33 620.41 C 1366.93 617.29, 1371.16 616.14, 1377.17 614.73 C 1383.18 613.32, 1385.08 613.95, 1388.39 613.37 C 1391.71 612.80, 1392.35 612.38, 1393.76 611.85 C 1395.17 611.31, 1395.05 611.27, 1395.44 610.68 C 1395.83 610.09, 1396.09 609.59, 1395.70 608.88 C 1395.30 608.18, 1395.16 607.51, 1393.47 607.16 C 1391.78 606.81, 1390.74 606.45, 1387.24 607.14 C 1383.74 607.82, 1382.00 608.53, 1375.98 610.58 C 1369.97 612.62, 1365.74 613.89, 1357.16 617.35 C 1348.58 620.80, 1343.74 622.87, 1333.08 627.85 C 1322.41 632.84, 1316.02 635.79, 1303.85 642.28 C 1291.69 648.76, 1285.02 652.57, 1272.24 660.28 C 1259.46 667.99, 1252.45 672.24, 1239.94 680.83 C 1227.44 689.42, 1221.09 694.15, 1209.71 703.23 C 1198.33 712.31, 1192.57 717.16, 1183.04 726.23 C 1173.52 735.30, 1169.17 740.00, 1162.11 748.59 C 1155.04 757.18, 1152.14 761.64, 1147.71 769.17 C 1143.28 776.71, 1141.77 780.32, 1139.96 786.28 C 1138.15 792.25, 1137.62 795.00, 1138.67 799.01 C 1139.73 803.02, 1141.86 805.23, 1145.23 806.33 C 1148.61 807.43, 1151.14 806.73, 1155.54 804.52 C 1159.94 802.30, 1162.23 800.14, 1167.23 795.26 C 1172.24 790.39, 1174.87 787.31, 1180.56 780.14 C 1186.26 772.97, 1189.38 768.70, 1195.71 759.41 C 1202.05 750.12, 1205.41 744.69, 1212.22 733.69 C 1219.04 722.70, 1222.50 716.48, 1229.80 704.43 C 1237.11 692.38, 1241.09 685.80, 1248.76 673.43 C 1256.42 661.07, 1260.51 654.54, 1268.12 642.59 C 1275.74 630.64, 1279.69 624.40, 1286.82 613.68 C 1293.94 602.97, 1297.72 597.61, 1303.73 589.00 C 1309.74 580.40, 1313.04 576.45, 1316.87 570.65 C 1320.70 564.86, 1322.82 562.96, 1322.87 560.02 C 1322.92 557.07, 1320.23 555.30, 1317.12 555.93 C 1314.02 556.57, 1312.51 559.43, 1307.34 563.21 C 1302.17 566.98, 1298.29 570.20, 1291.28 574.81 C 1284.27 579.42, 1280.01 582.12, 1272.27 586.27 C 1264.53 590.42, 1260.13 592.50, 1252.60 595.57 C 1245.07 598.65, 1240.98 600.03, 1234.61 601.66 C 1228.24 603.29, 1225.25 603.63, 1220.75 603.72 C 1216.26 603.81, 1214.51 603.13, 1212.13 602.10 C 1209.75 601.08, 1209.48 600.77, 1208.86 598.58 C 1208.24 596.39, 1208.04 594.89, 1209.03 591.15 C 1210.03 587.41, 1211.06 584.72, 1213.85 579.89 C 1216.63 575.06, 1219.10 571.86, 1222.96 566.99 C 1226.82 562.12, 1229.64 559.42, 1233.15 555.54 C 1236.67 551.67, 1239.35 550.53, 1240.53 547.60 C 1241.72 544.67, 1240.80 542.29, 1239.09 540.89 C 1237.39 539.48, 1235.53 539.40, 1232.01 540.58 C 1228.50 541.75, 1226.32 544.17, 1221.53 546.77 C 1216.73 549.36, 1213.72 551.02, 1208.05 553.55 C 1202.39 556.09, 1198.94 557.55, 1193.19 559.46 C 1187.45 561.38, 1184.46 562.27, 1179.33 563.15 C 1174.20 564.02, 1171.60 564.13, 1167.55 563.85 C 1163.50 563.56, 1161.79 562.97, 1159.09 561.72 C 1156.38 560.48, 1155.97 558.97, 1154.02 557.62 C 1152.08 556.28, 1151.33 555.97, 1149.35 555.00 C 1147.36 554.03, 1146.45 553.33, 1144.10 552.78 C 1141.74 552.24, 1140.26 551.59, 1137.58 552.28 C 1134.90 552.96, 1133.72 553.90, 1130.70 556.21 C 1127.69 558.52, 1126.38 560.17, 1122.50 563.84 C 1118.62 567.51, 1116.15 569.90, 1111.30 574.55 C 1106.45 579.19, 1103.52 582.10, 1098.26 587.05 C 1092.99 592.00, 1089.84 594.87, 1084.97 599.29 C 1080.09 603.71, 1077.30 605.95, 1073.88 609.14 C 1070.46 612.32, 1068.68 613.23, 1067.86 615.22 C 1067.04 617.20, 1068.41 618.87, 1069.78 619.07 C 1071.16 619.26, 1072.58 618.68, 1074.73 616.20 C 1076.88 613.73, 1077.72 610.87, 1080.53 606.68 C 1083.34 602.49, 1085.55 599.78, 1088.79 595.24 C 1092.03 590.70, 1094.16 588.17, 1096.74 583.98 C 1099.31 579.79, 1101.18 577.94, 1101.66 574.29 C 1102.15 570.64, 1101.11 568.42, 1099.15 565.71 C 1097.18 563.00, 1095.17 561.68, 1091.83 560.76 C 1088.49 559.84, 1086.12 561.03, 1082.44 561.09 C 1078.76 561.16, 1076.94 561.41, 1073.43 561.09 C 1069.92 560.78, 1068.10 560.44, 1064.89 559.53 C 1061.68 558.63, 1060.18 557.95, 1057.38 556.57 C 1054.58 555.20, 1053.43 554.27, 1050.90 552.66 C 1048.37 551.05, 1047.31 549.92, 1044.73 548.51 C 1042.15 547.09, 1040.89 546.45, 1038.01 545.57 C 1035.13 544.69, 1033.60 543.93, 1030.33 544.10 C 1027.06 544.27, 1025.36 544.74, 1021.64 546.44 C 1017.91 548.14, 1016.16 549.44, 1011.69 552.61 C 1007.22 555.77, 1004.60 557.85, 999.27 562.26 C 993.95 566.66, 990.75 569.49, 985.07 574.64 C 979.39 579.79, 976.12 583.01, 970.87 588.01 C 965.62 593.00, 962.84 595.77, 958.83 599.60 C 954.82 603.43, 952.33 604.60, 950.82 607.16 C 949.30 609.72, 950.21 611.50, 951.25 612.42 C 952.30 613.33, 953.90 613.63, 956.05 611.72 C 958.19 609.81, 958.97 607.20, 962.00 602.87 C 965.02 598.53, 967.23 595.38, 971.18 590.06 C 975.12 584.73, 977.73 581.41, 981.71 576.24 C 985.70 571.07, 988.13 568.30, 991.11 564.19 C 994.08 560.07, 996.04 558.34, 996.61 555.65 C 997.19 552.96, 995.72 551.04, 993.97 550.74 C 992.23 550.45, 991.24 551.51, 987.87 554.16 C 984.49 556.81, 982.61 559.45, 977.09 564.01 C 971.57 568.57, 967.89 571.58, 960.27 576.95 C 952.65 582.33, 947.99 585.46, 938.99 590.87 C 930.00 596.28, 924.78 599.41, 915.30 604.00 C 905.81 608.60, 900.48 610.91, 891.57 613.83 C 882.66 616.75, 878.07 617.75, 870.75 618.61 C 863.44 619.48, 860.01 619.25, 854.97 618.16 C 849.93 617.06, 848.19 615.93, 845.55 613.15 C 842.91 610.36, 842.15 608.72, 841.79 604.24 C 841.42 599.76, 841.60 596.77, 843.72 590.75 C 845.85 584.72, 847.90 580.85, 852.41 574.12 C 856.93 567.39, 860.10 563.49, 866.31 557.11 C 872.51 550.73, 876.52 547.25, 883.43 542.21 C 890.35 537.18, 894.65 534.97, 900.88 531.94 C 907.10 528.91, 910.42 528.18, 914.57 527.06 C 918.71 525.93, 920.10 526.31, 921.59 526.30 C 923.07 526.29, 922.85 525.51, 921.98 527.00 C 921.12 528.49, 920.82 530.35, 917.25 533.74 C 913.68 537.13, 910.94 539.69, 904.14 543.95 C 897.35 548.20, 892.94 550.60, 883.29 555.01 C 873.63 559.41, 867.75 561.65, 855.87 565.98 C 844.00 570.32, 837.23 572.51, 823.90 576.67 C 810.58 580.82, 803.26 582.69, 789.25 586.75 C 775.23 590.82, 767.83 592.85, 753.83 597.01 C 739.83 601.17, 732.50 603.27, 719.24 607.55 C 705.99 611.83, 699.23 613.99, 687.56 618.42 C 675.90 622.86, 670.23 625.23, 660.92 629.71 C 651.62 634.18, 647.20 636.48, 641.03 640.80 C 634.86 645.12, 632.26 647.06, 630.06 651.31 C 627.87 655.56, 627.89 658.91, 630.06 662.05 C 632.22 665.18, 635.00 666.13, 640.89 666.99 C 646.79 667.85, 650.59 667.59, 659.53 666.34 C 668.48 665.10, 674.12 664.02, 685.64 660.78 C 697.16 657.53, 704.13 655.27, 717.14 650.12 C 730.14 644.97, 737.70 641.73, 750.67 635.03 C 763.64 628.32, 770.74 624.26, 781.99 616.58 C 793.24 608.90, 798.64 604.61, 806.93 596.64 C 815.21 588.66, 818.80 584.50, 823.43 576.71 C 828.05 568.91, 829.49 564.86, 830.03 557.65 C 830.58 550.45, 829.58 546.63, 826.16 540.68 C 822.73 534.74, 819.43 532.09, 812.90 527.92 C 806.38 523.75, 801.81 522.31, 793.53 519.82 C 785.25 517.34, 780.04 516.68, 771.50 515.48 C 762.97 514.28, 758.02 514.20, 750.84 513.82 C 743.66 513.43, 739.80 513.27, 735.60 513.56 C 731.41 513.86, 730.13 515.23, 729.87 515.29 C 729.61 515.35, 730.70 515.96, 734.31 513.86 C 737.91 511.76, 740.98 509.27, 747.89 504.78 C 754.80 500.29, 760.10 497.33, 768.84 491.43 C 777.58 485.53, 783.24 481.91, 791.59 475.29 C 799.93 468.67, 804.48 464.95, 810.55 458.33 C 816.62 451.70, 819.48 448.42, 821.95 442.18 C 824.41 435.94, 824.65 432.35, 822.87 427.12 C 821.10 421.88, 818.45 419.53, 813.09 416.00 C 807.72 412.47, 803.72 411.29, 796.06 409.48 C 788.39 407.67, 783.79 407.15, 774.77 406.95 C 765.76 406.75, 760.47 407.11, 750.96 408.48 C 741.45 409.85, 736.17 411.18, 727.22 413.79 C 718.28 416.40, 713.70 418.00, 706.24 421.52 C 698.77 425.04, 695.20 427.55, 689.90 431.38 C 684.61 435.22, 682.45 437.36, 679.76 440.68 C 677.07 444.01, 676.32 446.04, 676.45 448.01 C 676.59 449.99, 678.69 451.10, 680.43 450.56" style="stroke: white; fill: white;"/></svg>