<svg xmlns="http://www.w3.org/2000/svg" id="canvas" viewBox="315.756 443.612 1568.741 179.614"><path d="M 320.90,460.95 C 320.19 461.96, 319.75 462.95, 319.39 466.22 C 319.02 469.49, 319.18 471.78, 319.07 477.28 C 318.96 482.78, 318.91 486.57, 318.85 493.71 C 318.79 500.84, 318.77 505.28, 318.76 512.97 C 318.76 520.67, 318.73 525.04, 318.83 532.19 C 318.93 539.34, 318.95 542.96, 319.26 548.73 C 319.57 554.51, 319.61 557.12, 320.40 561.08 C 321.19 565.04, 321.62 566.66, 323.23 568.53 C 324.84 570.40, 326.21 570.86, 328.45 570.43 C 330.68 570.01, 332.11 569.13, 334.41 566.42 C 336.70 563.71, 337.60 561.35, 339.93 556.88 C 342.26 552.41, 343.53 549.34, 346.05 544.06 C 348.57 538.78, 350.00 535.51, 352.54 530.50 C 355.08 525.48, 356.48 522.74, 358.76 518.98 C 361.03 515.23, 362.41 513.74, 363.91 511.72 C 365.42 509.69, 365.60 508.97, 366.29 508.86 C 366.99 508.75, 366.79 509.34, 367.39 511.15 C 367.99 512.95, 368.35 514.50, 369.29 517.88 C 370.24 521.25, 370.92 523.73, 372.11 528.01 C 373.31 532.29, 373.91 534.99, 375.26 539.28 C 376.61 543.57, 377.22 545.93, 378.86 549.45 C 380.50 552.97, 381.25 554.77, 383.46 556.90 C 385.67 559.02, 387.16 559.74, 389.89 560.06 C 392.62 560.39, 394.37 560.29, 397.12 558.53 C 399.87 556.76, 401.06 555.10, 403.64 551.22 C 406.22 547.35, 407.49 544.82, 410.03 539.16 C 412.57 533.50, 413.91 529.84, 416.36 522.92 C 418.81 515.99, 420.08 511.75, 422.28 504.53 C 424.47 497.32, 425.55 493.33, 427.31 486.84 C 429.07 480.35, 429.85 477.19, 431.08 472.06 C 432.32 466.94, 432.93 464.75, 433.49 461.20 C 434.05 457.66, 434.00 456.39, 433.89 454.33 C 433.79 452.27, 433.41 451.57, 432.96 450.88 C 432.51 450.20, 432.07 450.25, 431.64 450.90 C 431.21 451.56, 431.15 452.20, 430.82 454.15 C 430.48 456.11, 430.46 457.21, 429.97 460.68 C 429.49 464.14, 429.39 466.37, 428.39 471.48 C 427.40 476.59, 426.66 479.75, 425.00 486.23 C 423.33 492.70, 422.25 496.68, 420.05 503.85 C 417.85 511.02, 416.54 515.25, 413.99 522.06 C 411.45 528.86, 410.01 532.48, 407.32 537.88 C 404.63 543.27, 403.11 545.67, 400.56 549.03 C 398.00 552.40, 396.60 553.25, 394.56 554.69 C 392.51 556.14, 391.92 556.43, 390.34 556.25 C 388.75 556.07, 388.18 555.51, 386.64 553.79 C 385.10 552.07, 384.14 550.80, 382.63 547.67 C 381.13 544.53, 380.36 542.24, 379.11 538.10 C 377.86 533.95, 377.38 531.25, 376.39 526.93 C 375.39 522.60, 375.22 520.05, 374.16 516.47 C 373.09 512.89, 372.66 511.05, 371.07 509.03 C 369.47 507.02, 368.25 506.39, 366.19 506.38 C 364.13 506.38, 362.84 506.84, 360.76 509.02 C 358.67 511.19, 357.97 513.25, 355.77 517.26 C 353.57 521.28, 352.29 524.03, 349.75 529.10 C 347.22 534.16, 345.75 537.43, 343.10 542.60 C 340.46 547.78, 338.98 550.79, 336.51 554.99 C 334.04 559.18, 332.56 561.04, 330.76 563.57 C 328.97 566.10, 328.54 567.00, 327.54 567.63 C 326.53 568.26, 326.52 568.16, 325.73 566.72 C 324.95 565.28, 324.40 564.05, 323.63 560.41 C 322.85 556.78, 322.36 554.20, 321.86 548.55 C 321.37 542.90, 321.30 539.26, 321.15 532.15 C 321.00 525.04, 321.04 520.66, 321.12 512.99 C 321.21 505.31, 321.31 500.88, 321.58 493.77 C 321.84 486.66, 322.08 482.88, 322.46 477.43 C 322.83 471.98, 323.36 469.76, 323.45 466.51 C 323.55 463.25, 323.45 462.25, 322.94 461.14 C 322.42 460.03, 321.61 459.93, 320.90 460.95" style="stroke: white; fill: white;"/><path d="M 444.68,538.66 C 445.62 539.22, 446.80 539.60, 449.03 539.27 C 451.25 538.95, 452.85 538.54, 455.81 537.03 C 458.76 535.53, 460.69 534.26, 463.79 531.77 C 466.90 529.28, 468.60 527.61, 471.32 524.58 C 474.05 521.54, 475.49 519.78, 477.41 516.60 C 479.33 513.41, 480.41 511.61, 480.92 508.63 C 481.43 505.65, 481.16 503.85, 479.97 501.68 C 478.78 499.51, 477.55 498.30, 474.96 497.79 C 472.37 497.28, 470.36 497.47, 467.02 499.11 C 463.68 500.76, 461.71 502.50, 458.28 506.03 C 454.85 509.56, 452.84 512.08, 449.87 516.77 C 446.90 521.46, 445.26 524.40, 443.44 529.48 C 441.62 534.55, 440.89 537.46, 440.78 542.14 C 440.67 546.82, 441.10 549.36, 442.91 552.89 C 444.71 556.42, 446.36 558.02, 449.80 559.79 C 453.24 561.57, 455.63 561.89, 460.11 561.77 C 464.58 561.64, 467.23 561.02, 472.17 559.16 C 477.12 557.31, 479.76 555.91, 484.83 552.49 C 489.90 549.07, 492.56 546.85, 497.52 542.07 C 502.49 537.29, 505.07 534.40, 509.66 528.58 C 514.25 522.76, 516.54 519.37, 520.48 512.96 C 524.43 506.56, 526.32 502.91, 529.39 496.56 C 532.47 490.22, 533.85 486.82, 535.88 481.23 C 537.90 475.65, 538.68 472.95, 539.51 468.63 C 540.33 464.31, 540.68 462.36, 540.02 459.62 C 539.36 456.88, 538.30 455.72, 536.20 454.93 C 534.10 454.15, 532.24 454.02, 529.51 455.71 C 526.77 457.39, 525.38 459.27, 522.54 463.37 C 519.70 467.47, 518.03 470.31, 515.29 476.19 C 512.54 482.07, 510.95 485.91, 508.82 492.79 C 506.69 499.66, 505.68 503.73, 504.63 510.57 C 503.59 517.41, 503.27 521.05, 503.60 526.97 C 503.93 532.88, 504.49 535.69, 506.26 540.15 C 508.03 544.60, 509.39 546.51, 512.45 549.23 C 515.50 551.95, 517.91 552.67, 521.54 553.76 C 525.18 554.86, 527.55 554.95, 530.61 554.70 C 533.68 554.45, 535.68 553.37, 536.86 552.51 C 538.04 551.65, 537.79 550.86, 536.52 550.39 C 535.25 549.92, 533.30 550.29, 530.51 550.17 C 527.73 550.05, 525.77 550.50, 522.59 549.79 C 519.42 549.09, 517.36 548.79, 514.63 546.64 C 511.90 544.49, 510.64 543.01, 508.95 539.04 C 507.26 535.08, 506.56 532.43, 506.18 526.81 C 505.80 521.19, 506.04 517.59, 507.05 510.94 C 508.07 504.29, 509.08 500.25, 511.26 493.56 C 513.44 486.88, 515.11 483.09, 517.97 477.51 C 520.84 471.92, 522.75 469.22, 525.59 465.62 C 528.43 462.01, 530.20 461.10, 532.17 459.47 C 534.13 457.84, 534.54 457.31, 535.40 457.46 C 536.26 457.62, 536.27 458.12, 536.46 460.25 C 536.65 462.37, 536.96 464.07, 536.36 468.09 C 535.75 472.12, 535.24 474.89, 533.44 480.39 C 531.63 485.88, 530.29 489.29, 527.33 495.57 C 524.36 501.86, 522.49 505.49, 518.60 511.81 C 514.72 518.13, 512.44 521.48, 507.88 527.17 C 503.33 532.87, 500.74 535.68, 495.83 540.28 C 490.91 544.88, 488.24 546.99, 483.29 550.16 C 478.34 553.33, 475.73 554.52, 471.08 556.13 C 466.42 557.73, 463.94 558.11, 460.02 558.18 C 456.10 558.25, 454.27 557.88, 451.47 556.50 C 448.68 555.11, 447.54 554.12, 446.07 551.26 C 444.60 548.41, 444.03 546.35, 444.11 542.21 C 444.20 538.08, 444.76 535.29, 446.48 530.58 C 448.21 525.86, 449.82 522.98, 452.74 518.64 C 455.66 514.30, 457.77 511.92, 461.06 508.87 C 464.35 505.82, 466.50 504.79, 469.19 503.38 C 471.87 501.96, 473.00 501.83, 474.49 501.80 C 475.98 501.76, 476.29 502.06, 476.62 503.21 C 476.95 504.37, 476.76 505.37, 476.13 507.57 C 475.50 509.78, 475.08 511.46, 473.45 514.25 C 471.83 517.05, 470.54 518.84, 468.01 521.55 C 465.48 524.26, 463.79 525.74, 460.82 527.80 C 457.85 529.86, 455.83 530.51, 453.18 531.86 C 450.52 533.21, 449.33 533.63, 447.55 534.55 C 445.78 535.47, 444.88 535.64, 444.30 536.46 C 443.73 537.29, 443.74 538.10, 444.68 538.66" style="stroke: white; fill: white;"/><path d="M 592.63,504.33 C 591.73 503.80, 590.71 503.21, 588.46 503.72 C 586.22 504.22, 584.58 504.89, 581.40 506.86 C 578.22 508.84, 576.11 510.32, 572.56 513.57 C 569.00 516.83, 566.84 519.13, 563.62 523.12 C 560.41 527.11, 558.60 529.46, 556.48 533.53 C 554.36 537.59, 553.28 539.78, 553.02 543.44 C 552.77 547.10, 553.22 549.23, 555.20 551.83 C 557.19 554.43, 559.11 555.44, 562.94 556.44 C 566.76 557.44, 569.27 557.36, 574.33 556.84 C 579.40 556.32, 582.45 555.57, 588.28 553.82 C 594.11 552.08, 597.48 550.76, 603.50 548.13 C 609.51 545.50, 612.85 543.77, 618.37 540.68 C 623.90 537.58, 626.70 535.73, 631.14 532.64 C 635.57 529.56, 637.68 528.00, 640.55 525.25 C 643.41 522.50, 644.62 521.18, 645.48 518.89 C 646.34 516.61, 646.00 515.28, 644.86 513.84 C 643.73 512.40, 642.32 511.65, 639.82 511.70 C 637.32 511.76, 635.40 512.33, 632.37 514.11 C 629.35 515.90, 627.59 517.59, 624.70 520.63 C 621.80 523.67, 620.10 525.69, 617.89 529.32 C 615.67 532.95, 614.51 535.12, 613.60 538.79 C 612.70 542.45, 612.47 544.58, 613.35 547.67 C 614.23 550.75, 615.46 552.35, 618.00 554.21 C 620.53 556.06, 622.51 556.65, 626.01 556.92 C 629.51 557.20, 631.74 556.74, 635.49 555.60 C 639.25 554.45, 641.37 553.41, 644.80 551.19 C 648.23 548.98, 650.03 547.50, 652.66 544.53 C 655.29 541.56, 656.53 539.71, 657.94 536.34 C 659.36 532.96, 659.80 530.94, 659.72 527.66 C 659.64 524.38, 658.97 522.55, 657.52 519.93 C 656.07 517.31, 654.75 516.13, 652.48 514.57 C 650.22 513.02, 648.51 512.53, 646.21 512.15 C 643.91 511.77, 642.57 512.19, 640.97 512.68 C 639.37 513.18, 638.67 513.89, 638.22 514.63 C 637.76 515.37, 638.05 515.92, 638.68 516.37 C 639.31 516.82, 640.09 516.66, 641.38 516.86 C 642.68 517.07, 643.52 517.01, 645.17 517.41 C 646.82 517.82, 648.04 517.90, 649.65 518.89 C 651.27 519.87, 652.20 520.56, 653.24 522.34 C 654.27 524.13, 654.71 525.36, 654.82 527.82 C 654.93 530.28, 654.85 531.88, 653.77 534.65 C 652.69 537.42, 651.69 539.10, 649.42 541.67 C 647.16 544.24, 645.50 545.60, 642.46 547.49 C 639.41 549.38, 637.41 550.22, 634.18 551.14 C 630.95 552.05, 629.05 552.19, 626.33 552.06 C 623.61 551.93, 622.30 551.62, 620.57 550.50 C 618.85 549.39, 618.22 548.61, 617.69 546.49 C 617.15 544.36, 617.11 542.85, 617.89 539.88 C 618.67 536.91, 619.56 534.81, 621.60 531.65 C 623.64 528.48, 625.34 526.58, 628.08 524.05 C 630.82 521.52, 632.79 520.54, 635.31 518.98 C 637.83 517.42, 639.12 516.96, 640.69 516.23 C 642.26 515.51, 642.81 515.14, 643.14 515.36 C 643.48 515.57, 643.37 515.85, 642.34 517.32 C 641.32 518.78, 640.61 520.09, 638.03 522.68 C 635.45 525.28, 633.63 527.14, 629.43 530.28 C 625.24 533.42, 622.47 535.29, 617.07 538.36 C 611.67 541.44, 608.35 543.14, 602.43 545.66 C 596.51 548.18, 593.14 549.41, 587.46 550.95 C 581.78 552.49, 578.74 553.03, 574.03 553.37 C 569.32 553.70, 567.05 553.43, 563.92 552.63 C 560.79 551.83, 559.78 551.14, 558.38 549.37 C 556.98 547.59, 556.65 546.59, 556.92 543.76 C 557.20 540.94, 557.84 538.89, 559.76 535.23 C 561.67 531.57, 563.37 529.16, 566.47 525.46 C 569.58 521.76, 571.77 519.58, 575.29 516.74 C 578.80 513.90, 581.08 512.98, 584.04 511.26 C 587.00 509.55, 588.32 509.15, 590.11 508.17 C 591.89 507.19, 592.47 507.13, 592.98 506.36 C 593.48 505.59, 593.53 504.86, 592.63 504.33" style="stroke: white; fill: white;"/><path d="M 681.12,515.04 C 680.35 515.88, 680.12 517.08, 679.59 519.26 C 679.07 521.44, 678.93 523.01, 678.49 525.93 C 678.06 528.84, 677.74 530.93, 677.44 533.85 C 677.14 536.78, 676.77 538.39, 676.99 540.54 C 677.22 542.70, 677.54 543.75, 678.57 544.64 C 679.59 545.52, 680.47 545.72, 682.13 544.98 C 683.79 544.23, 684.86 543.26, 686.85 540.91 C 688.84 538.56, 689.69 536.38, 692.08 533.23 C 694.48 530.09, 696.09 527.97, 698.83 525.17 C 701.58 522.37, 703.40 521.00, 705.80 519.24 C 708.20 517.48, 709.32 516.84, 710.83 516.36 C 712.34 515.87, 712.77 515.99, 713.37 516.81 C 713.97 517.62, 713.83 518.57, 713.81 520.43 C 713.78 522.30, 713.39 523.79, 713.24 526.14 C 713.09 528.49, 712.82 530.03, 713.05 532.18 C 713.28 534.34, 713.47 535.51, 714.40 536.90 C 715.33 538.30, 716.00 538.95, 717.69 539.15 C 719.39 539.35, 720.60 539.17, 722.87 537.91 C 725.13 536.66, 726.31 535.14, 729.03 532.88 C 731.76 530.62, 733.40 528.89, 736.49 526.63 C 739.59 524.37, 741.60 523.09, 744.51 521.58 C 747.41 520.07, 748.90 519.54, 751.01 519.09 C 753.11 518.64, 753.79 518.62, 755.03 519.34 C 756.27 520.06, 756.48 520.92, 757.21 522.70 C 757.93 524.48, 757.98 525.84, 758.65 528.24 C 759.32 530.65, 759.53 532.24, 760.56 534.72 C 761.58 537.20, 762.13 538.64, 763.79 540.65 C 765.45 542.66, 766.46 543.66, 768.86 544.78 C 771.25 545.90, 772.75 546.41, 775.77 546.24 C 778.80 546.07, 780.51 545.44, 784.00 543.93 C 787.48 542.42, 789.45 541.21, 793.20 538.70 C 796.95 536.19, 799.13 534.51, 802.74 531.38 C 806.35 528.26, 808.31 526.29, 811.26 523.08 C 814.22 519.87, 815.89 518.20, 817.52 515.31 C 819.15 512.43, 819.60 510.86, 819.41 508.66 C 819.22 506.45, 818.41 505.27, 816.58 504.31 C 814.75 503.34, 812.98 503.04, 810.28 503.85 C 807.58 504.66, 805.76 505.91, 803.08 508.36 C 800.41 510.81, 798.90 512.65, 796.89 516.08 C 794.89 519.52, 793.74 521.70, 793.06 525.55 C 792.38 529.39, 792.25 531.75, 793.49 535.32 C 794.72 538.88, 796.04 540.76, 799.24 543.38 C 802.44 546.00, 805.26 546.93, 809.50 548.40 C 813.74 549.87, 816.55 550.33, 820.41 550.74 C 824.28 551.15, 827.10 550.96, 828.81 550.45 C 830.52 549.93, 830.52 548.90, 828.96 548.16 C 827.41 547.42, 824.65 547.47, 821.02 546.74 C 817.40 546.01, 814.69 545.80, 810.84 544.50 C 806.98 543.20, 804.43 542.34, 801.75 540.24 C 799.07 538.14, 798.30 536.77, 797.44 534.00 C 796.57 531.24, 796.71 529.50, 797.43 526.44 C 798.15 523.37, 799.16 521.46, 801.05 518.69 C 802.94 515.92, 804.59 514.57, 806.87 512.60 C 809.14 510.64, 810.67 509.95, 812.42 508.86 C 814.17 507.77, 814.87 507.24, 815.61 507.15 C 816.34 507.07, 816.52 507.29, 816.11 508.44 C 815.70 509.60, 815.14 510.53, 813.58 512.93 C 812.02 515.34, 810.97 517.34, 808.30 520.45 C 805.64 523.56, 803.72 525.53, 800.25 528.49 C 796.79 531.44, 794.58 533.02, 790.98 535.23 C 787.37 537.44, 785.33 538.36, 782.21 539.52 C 779.10 540.67, 777.69 540.80, 775.41 540.99 C 773.13 541.18, 772.32 541.16, 770.82 540.49 C 769.32 539.82, 768.85 539.22, 767.92 537.66 C 766.98 536.09, 766.86 534.94, 766.16 532.68 C 765.46 530.42, 765.35 528.86, 764.42 526.36 C 763.50 523.87, 763.05 522.33, 761.54 520.22 C 760.04 518.11, 759.16 516.96, 756.91 515.81 C 754.67 514.67, 753.24 514.20, 750.33 514.50 C 747.42 514.80, 745.68 515.68, 742.36 517.30 C 739.03 518.92, 737.08 520.38, 733.70 522.59 C 730.33 524.79, 728.36 526.23, 725.49 528.32 C 722.62 530.41, 721.03 531.44, 719.35 533.03 C 717.67 534.61, 717.43 535.63, 717.09 536.25 C 716.76 536.87, 717.24 536.88, 717.66 536.13 C 718.09 535.39, 718.75 534.49, 719.20 532.52 C 719.66 530.56, 719.98 528.92, 719.95 526.31 C 719.93 523.69, 719.92 521.87, 719.09 519.44 C 718.26 517.02, 717.59 515.59, 715.80 514.19 C 714.01 512.79, 712.69 512.23, 710.15 512.46 C 707.61 512.68, 706.00 513.41, 703.09 515.30 C 700.18 517.19, 698.60 519.00, 695.59 521.92 C 692.59 524.83, 690.80 526.86, 688.06 529.90 C 685.32 532.93, 683.62 534.60, 681.89 537.10 C 680.16 539.59, 679.76 540.99, 679.40 542.37 C 679.03 543.76, 679.50 544.23, 680.06 544.01 C 680.62 543.78, 681.41 543.11, 682.19 541.27 C 682.97 539.42, 683.43 537.72, 683.97 534.78 C 684.50 531.84, 684.69 529.62, 684.86 526.57 C 685.03 523.52, 685.12 521.84, 684.84 519.54 C 684.55 517.25, 684.19 515.98, 683.44 515.08 C 682.70 514.18, 681.89 514.21, 681.12 515.04" style="stroke: white; fill: white;"/><path d="M 970.09,452.93 C 969.43 453.88, 969.06 454.78, 968.84 457.68 C 968.61 460.57, 969.04 462.54, 968.98 467.39 C 968.91 472.25, 968.83 475.61, 968.49 481.96 C 968.16 488.31, 967.87 492.27, 967.30 499.14 C 966.73 506.02, 966.31 509.89, 965.65 516.34 C 964.99 522.80, 964.61 526.10, 964.00 531.41 C 963.38 536.72, 962.92 539.27, 962.58 542.88 C 962.24 546.48, 962.27 547.57, 962.31 549.45 C 962.35 551.32, 962.46 551.66, 962.77 552.25 C 963.08 552.85, 963.38 552.92, 963.86 552.42 C 964.34 551.93, 964.70 551.62, 965.17 549.78 C 965.64 547.94, 965.87 546.83, 966.21 543.21 C 966.54 539.60, 966.45 537.01, 966.85 531.68 C 967.25 526.36, 967.59 523.05, 968.20 516.59 C 968.81 510.13, 969.24 506.26, 969.91 499.38 C 970.58 492.49, 970.96 488.54, 971.54 482.18 C 972.11 475.81, 972.39 472.45, 972.76 467.57 C 973.14 462.68, 973.53 460.68, 973.41 457.76 C 973.29 454.83, 972.81 453.89, 972.15 452.93 C 971.49 451.96, 970.75 451.98, 970.09 452.93" style="stroke: white; fill: white;"/><path d="M 940.32,518.19 C 941.15 518.70, 941.80 518.90, 944.05 518.80 C 946.30 518.71, 947.78 518.25, 951.58 517.71 C 955.37 517.16, 957.94 516.69, 963.02 516.09 C 968.10 515.49, 971.30 515.27, 976.96 514.72 C 982.61 514.17, 985.80 513.87, 991.29 513.34 C 996.78 512.81, 999.63 512.52, 1004.39 512.07 C 1009.14 511.61, 1011.57 511.49, 1015.08 511.06 C 1018.59 510.62, 1020.26 510.24, 1021.94 509.89 C 1023.62 509.54, 1023.82 508.93, 1023.50 509.33 C 1023.17 509.73, 1021.97 509.97, 1020.31 511.87 C 1018.66 513.77, 1017.44 515.57, 1015.22 518.81 C 1013.00 522.05, 1011.28 524.35, 1009.21 528.07 C 1007.14 531.79, 1005.73 533.95, 1004.86 537.42 C 1003.98 540.89, 1003.90 542.80, 1004.85 545.42 C 1005.79 548.04, 1007.01 549.32, 1009.59 550.50 C 1012.17 551.69, 1014.19 551.87, 1017.74 551.35 C 1021.29 550.82, 1023.47 549.85, 1027.34 547.90 C 1031.21 545.94, 1033.48 544.48, 1037.09 541.57 C 1040.70 538.66, 1042.66 536.82, 1045.39 533.36 C 1048.13 529.89, 1049.42 527.85, 1050.76 524.24 C 1052.11 520.63, 1052.58 518.56, 1052.12 515.31 C 1051.67 512.06, 1050.64 510.28, 1048.47 507.99 C 1046.30 505.71, 1044.44 504.78, 1041.28 503.87 C 1038.12 502.96, 1035.90 502.98, 1032.67 503.45 C 1029.45 503.92, 1027.46 504.89, 1025.15 506.23 C 1022.83 507.56, 1021.69 508.98, 1021.08 510.14 C 1020.48 511.30, 1020.91 511.85, 1022.12 512.02 C 1023.32 512.18, 1024.83 511.52, 1027.11 510.94 C 1029.39 510.37, 1030.92 509.53, 1033.51 509.15 C 1036.09 508.77, 1037.68 508.61, 1040.03 509.04 C 1042.37 509.46, 1043.70 509.88, 1045.22 511.26 C 1046.74 512.65, 1047.30 513.63, 1047.63 515.95 C 1047.97 518.26, 1047.94 519.83, 1046.88 522.83 C 1045.82 525.83, 1044.78 527.82, 1042.33 530.95 C 1039.88 534.07, 1038.01 535.85, 1034.63 538.45 C 1031.25 541.05, 1028.97 542.32, 1025.43 543.93 C 1021.89 545.55, 1019.81 545.98, 1016.94 546.52 C 1014.06 547.06, 1012.75 547.09, 1011.06 546.65 C 1009.38 546.20, 1008.86 545.87, 1008.52 544.29 C 1008.19 542.71, 1008.41 541.52, 1009.37 538.75 C 1010.33 535.98, 1011.31 533.84, 1013.34 530.46 C 1015.38 527.09, 1017.24 525.01, 1019.54 521.88 C 1021.84 518.74, 1023.63 517.35, 1024.84 514.79 C 1026.06 512.23, 1026.19 510.76, 1025.62 509.08 C 1025.05 507.40, 1024.20 506.78, 1021.99 506.37 C 1019.78 505.97, 1018.15 506.58, 1014.56 507.06 C 1010.96 507.55, 1008.72 508.17, 1004.01 508.82 C 999.29 509.47, 996.46 509.77, 990.99 510.31 C 985.53 510.85, 982.35 511.13, 976.69 511.54 C 971.03 511.94, 967.83 512.04, 962.70 512.32 C 957.56 512.61, 954.90 512.59, 951.02 512.95 C 947.13 513.31, 945.49 513.48, 943.27 514.13 C 941.05 514.78, 940.50 515.40, 939.91 516.22 C 939.32 517.03, 939.49 517.67, 940.32 518.19" style="stroke: white; fill: white;"/><path d="M 1172.97,466.11 C 1172.36 467.17, 1172.14 468.29, 1172.08 471.21 C 1172.02 474.14, 1172.50 476.14, 1172.67 480.72 C 1172.85 485.30, 1173.01 488.51, 1172.94 494.10 C 1172.87 499.69, 1172.71 503.07, 1172.32 508.69 C 1171.93 514.30, 1171.56 517.38, 1170.98 522.18 C 1170.40 526.98, 1169.80 529.29, 1169.43 532.69 C 1169.06 536.09, 1168.84 537.81, 1169.13 539.16 C 1169.41 540.52, 1170.11 540.66, 1170.85 539.47 C 1171.58 538.28, 1172.13 536.60, 1172.81 533.21 C 1173.49 529.83, 1173.73 527.42, 1174.25 522.55 C 1174.78 517.69, 1175.02 514.58, 1175.45 508.91 C 1175.87 503.24, 1176.12 499.85, 1176.38 494.20 C 1176.63 488.55, 1176.65 485.32, 1176.73 480.68 C 1176.80 476.04, 1177.08 473.95, 1176.75 471.00 C 1176.42 468.06, 1175.86 466.93, 1175.10 465.95 C 1174.34 464.98, 1173.57 465.06, 1172.97 466.11" style="stroke: white; fill: white;"/><path d="M 1156.54,464.79 C 1157.41 464.47, 1157.59 463.64, 1158.89 462.34 C 1160.19 461.05, 1160.70 460.09, 1163.04 458.30 C 1165.38 456.50, 1166.76 454.93, 1170.58 453.37 C 1174.40 451.82, 1177.19 451.16, 1182.14 450.52 C 1187.09 449.89, 1190.26 449.81, 1195.32 450.21 C 1200.39 450.61, 1203.27 451.11, 1207.48 452.51 C 1211.68 453.91, 1213.78 455.09, 1216.37 457.20 C 1218.95 459.31, 1219.71 460.58, 1220.39 463.05 C 1221.06 465.52, 1220.91 466.73, 1219.74 469.56 C 1218.57 472.38, 1217.33 474.14, 1214.55 477.16 C 1211.78 480.18, 1209.49 481.93, 1205.86 484.66 C 1202.24 487.40, 1199.62 488.59, 1196.42 490.82 C 1193.23 493.05, 1191.35 493.87, 1189.89 495.82 C 1188.43 497.76, 1188.31 498.89, 1189.12 500.56 C 1189.93 502.22, 1191.05 503.09, 1193.94 504.12 C 1196.82 505.16, 1199.24 504.88, 1203.54 505.74 C 1207.84 506.60, 1210.77 507.00, 1215.44 508.42 C 1220.11 509.83, 1222.86 510.76, 1226.89 512.83 C 1230.92 514.91, 1232.97 516.24, 1235.59 518.78 C 1238.21 521.31, 1239.15 522.75, 1239.99 525.51 C 1240.84 528.27, 1240.84 529.59, 1239.80 532.57 C 1238.77 535.55, 1237.74 537.25, 1234.82 540.43 C 1231.89 543.60, 1229.71 545.45, 1225.17 548.45 C 1220.62 551.44, 1217.54 553.03, 1212.10 555.41 C 1206.66 557.79, 1203.31 558.91, 1197.96 560.35 C 1192.62 561.79, 1189.65 562.28, 1185.37 562.60 C 1181.09 562.93, 1179.12 562.43, 1176.56 561.98 C 1173.99 561.54, 1173.18 561.30, 1172.56 560.37 C 1171.94 559.43, 1172.31 558.96, 1173.45 557.30 C 1174.59 555.65, 1175.49 554.35, 1178.24 552.08 C 1180.99 549.80, 1182.91 548.27, 1187.19 545.93 C 1191.46 543.59, 1194.23 542.36, 1199.62 540.40 C 1205.01 538.43, 1208.19 537.60, 1214.14 536.10 C 1220.08 534.60, 1223.31 534.05, 1229.36 532.89 C 1235.41 531.72, 1238.58 531.32, 1244.39 530.27 C 1250.19 529.22, 1253.11 528.80, 1258.38 527.64 C 1263.66 526.48, 1266.23 525.88, 1270.76 524.47 C 1275.29 523.05, 1277.44 522.29, 1281.03 520.55 C 1284.62 518.81, 1286.37 517.92, 1288.69 515.77 C 1291.02 513.61, 1291.89 512.17, 1292.67 509.77 C 1293.46 507.37, 1293.46 505.87, 1292.64 503.76 C 1291.81 501.66, 1290.80 500.43, 1288.57 499.25 C 1286.33 498.06, 1284.53 497.53, 1281.45 497.84 C 1278.37 498.15, 1276.41 498.97, 1273.18 500.80 C 1269.94 502.62, 1268.09 504.05, 1265.27 506.98 C 1262.44 509.91, 1260.93 511.82, 1259.06 515.44 C 1257.19 519.06, 1256.37 521.26, 1255.92 525.08 C 1255.46 528.90, 1255.61 531.09, 1256.79 534.53 C 1257.98 537.96, 1259.18 539.72, 1261.86 542.25 C 1264.53 544.78, 1266.43 545.85, 1270.17 547.19 C 1273.92 548.52, 1276.22 548.84, 1280.57 548.93 C 1284.92 549.03, 1287.40 548.67, 1291.94 547.66 C 1296.48 546.65, 1298.90 545.77, 1303.27 543.90 C 1307.63 542.02, 1309.88 540.72, 1313.76 538.28 C 1317.64 535.85, 1319.51 534.32, 1322.67 531.70 C 1325.82 529.09, 1327.26 527.66, 1329.55 525.22 C 1331.83 522.78, 1332.76 521.48, 1334.07 519.52 C 1335.38 517.55, 1335.64 516.60, 1336.10 515.38 C 1336.55 514.16, 1336.48 513.80, 1336.34 513.40 C 1336.21 513.01, 1335.82 513.03, 1335.43 513.41 C 1335.04 513.79, 1334.58 514.18, 1334.40 515.31 C 1334.22 516.45, 1334.32 517.30, 1334.54 519.08 C 1334.76 520.86, 1335.10 521.99, 1335.49 524.21 C 1335.88 526.44, 1336.07 527.82, 1336.49 530.21 C 1336.92 532.61, 1337.09 533.99, 1337.63 536.19 C 1338.18 538.40, 1338.41 539.53, 1339.22 541.22 C 1340.02 542.91, 1340.45 543.71, 1341.65 544.65 C 1342.85 545.58, 1343.70 545.92, 1345.21 545.88 C 1346.71 545.84, 1347.61 545.54, 1349.16 544.44 C 1350.70 543.34, 1351.44 542.47, 1352.91 540.40 C 1354.39 538.32, 1354.95 536.80, 1356.52 534.05 C 1358.09 531.30, 1358.89 529.54, 1360.78 526.64 C 1362.68 523.74, 1363.80 522.13, 1365.99 519.57 C 1368.18 517.00, 1369.41 515.75, 1371.73 513.84 C 1374.05 511.92, 1375.27 511.16, 1377.60 509.99 C 1379.92 508.83, 1381.13 508.45, 1383.35 508.00 C 1385.58 507.55, 1386.72 507.56, 1388.72 507.74 C 1390.71 507.93, 1391.76 508.08, 1393.32 508.93 C 1394.89 509.77, 1395.56 510.32, 1396.56 511.96 C 1397.56 513.59, 1397.79 514.71, 1398.32 517.11 C 1398.85 519.51, 1399.07 521.05, 1399.22 523.96 C 1399.38 526.88, 1399.21 528.73, 1399.09 531.71 C 1398.96 534.68, 1398.62 536.34, 1398.58 538.85 C 1398.54 541.36, 1398.46 542.58, 1398.89 544.25 C 1399.32 545.93, 1399.74 546.63, 1400.74 547.22 C 1401.75 547.82, 1402.61 547.88, 1403.91 547.22 C 1405.22 546.57, 1406.02 545.86, 1407.27 543.95 C 1408.51 542.04, 1408.88 540.52, 1410.13 537.67 C 1411.38 534.82, 1411.90 532.87, 1413.51 529.70 C 1415.13 526.52, 1416.18 524.69, 1418.20 521.81 C 1420.21 518.94, 1421.38 517.52, 1423.58 515.31 C 1425.78 513.10, 1426.93 512.19, 1429.19 510.75 C 1431.44 509.30, 1432.53 508.86, 1434.86 508.11 C 1437.18 507.35, 1438.39 507.25, 1440.79 506.99 C 1443.20 506.72, 1444.47 506.74, 1446.89 506.79 C 1449.30 506.84, 1450.55 507.00, 1452.87 507.25 C 1455.18 507.50, 1456.35 507.70, 1458.46 508.03 C 1460.57 508.36, 1461.59 508.57, 1463.42 508.91 C 1465.25 509.26, 1466.10 509.45, 1467.62 509.76 C 1469.15 510.07, 1469.77 510.19, 1471.04 510.46 C 1472.32 510.74, 1472.81 510.90, 1473.99 511.14 C 1475.17 511.38, 1475.71 511.55, 1476.94 511.67 C 1478.17 511.80, 1478.84 511.83, 1480.14 511.77 C 1481.43 511.70, 1482.14 511.57, 1483.44 511.33 C 1484.73 511.08, 1485.38 510.84, 1486.60 510.54 C 1487.82 510.25, 1488.43 510.04, 1489.54 509.84 C 1490.65 509.65, 1491.14 509.51, 1492.14 509.57 C 1493.13 509.63, 1493.54 509.75, 1494.52 510.14 C 1495.50 510.53, 1496.00 510.83, 1497.02 511.52 C 1498.03 512.21, 1498.56 512.58, 1499.59 513.60 C 1500.62 514.62, 1501.14 515.22, 1502.16 516.63 C 1503.18 518.03, 1503.73 518.82, 1504.69 520.64 C 1505.65 522.46, 1506.10 523.46, 1506.97 525.73 C 1507.84 528.00, 1508.29 529.25, 1509.03 532.00 C 1509.77 534.75, 1510.21 536.22, 1510.67 539.47 C 1511.13 542.71, 1511.31 544.47, 1511.32 548.23 C 1511.32 551.99, 1511.23 554.05, 1510.68 558.27 C 1510.13 562.48, 1509.73 564.83, 1508.57 569.30 C 1507.40 573.78, 1506.65 576.21, 1504.87 580.64 C 1503.08 585.08, 1501.97 587.39, 1499.63 591.48 C 1497.29 595.56, 1495.88 597.64, 1493.15 601.07 C 1490.41 604.50, 1488.83 606.15, 1485.97 608.63 C 1483.11 611.11, 1481.43 612.04, 1478.84 613.46 C 1476.26 614.88, 1474.95 615.29, 1473.05 615.72 C 1471.15 616.16, 1470.42 616.22, 1469.36 615.65 C 1468.29 615.08, 1468.03 614.59, 1467.73 612.87 C 1467.43 611.15, 1467.31 610.07, 1467.87 607.06 C 1468.43 604.05, 1468.70 602.02, 1470.52 597.84 C 1472.34 593.67, 1473.65 591.11, 1476.96 586.18 C 1480.27 581.26, 1482.48 578.52, 1487.07 573.21 C 1491.65 567.90, 1494.38 565.06, 1499.88 559.63 C 1505.38 554.19, 1508.52 551.38, 1514.58 546.05 C 1520.63 540.72, 1523.99 538.08, 1530.15 532.97 C 1536.31 527.86, 1539.54 525.34, 1545.40 520.50 C 1551.26 515.66, 1554.22 513.29, 1559.45 508.77 C 1564.68 504.25, 1567.21 502.05, 1571.55 497.91 C 1575.88 493.77, 1577.83 491.74, 1581.11 488.08 C 1584.39 484.42, 1585.81 482.71, 1587.94 479.59 C 1590.08 476.47, 1590.99 475.04, 1591.78 472.46 C 1592.57 469.88, 1592.50 468.56, 1591.90 466.68 C 1591.29 464.79, 1590.50 463.81, 1588.77 463.06 C 1587.04 462.30, 1585.56 462.06, 1583.23 462.89 C 1580.90 463.72, 1579.46 464.69, 1577.13 467.20 C 1574.80 469.71, 1573.75 471.63, 1571.58 475.44 C 1569.42 479.26, 1568.22 481.62, 1566.31 486.26 C 1564.41 490.90, 1563.42 493.64, 1562.07 498.63 C 1560.71 503.61, 1560.14 506.35, 1559.54 511.18 C 1558.94 516.00, 1558.81 518.45, 1559.07 522.76 C 1559.33 527.07, 1559.65 529.13, 1560.85 532.72 C 1562.04 536.32, 1562.93 537.97, 1565.06 540.73 C 1567.20 543.50, 1568.62 544.67, 1571.51 546.54 C 1574.39 548.40, 1576.15 549.07, 1579.48 550.06 C 1582.82 551.06, 1584.61 551.30, 1588.19 551.51 C 1591.76 551.73, 1593.67 551.61, 1597.36 551.15 C 1601.06 550.69, 1602.98 550.23, 1606.65 549.19 C 1610.31 548.16, 1612.36 547.36, 1615.70 545.96 C 1619.03 544.56, 1620.97 543.80, 1623.33 542.20 C 1625.68 540.60, 1626.86 539.14, 1627.48 537.95 C 1628.09 536.77, 1627.69 536.24, 1626.40 536.25 C 1625.11 536.26, 1623.55 536.95, 1621.03 538.02 C 1618.52 539.10, 1616.95 540.24, 1613.83 541.62 C 1610.70 543.00, 1608.81 543.92, 1605.41 544.94 C 1602.01 545.96, 1600.21 546.33, 1596.83 546.73 C 1593.44 547.13, 1591.69 547.16, 1588.49 546.92 C 1585.29 546.69, 1583.72 546.43, 1580.82 545.57 C 1577.91 544.72, 1576.43 544.15, 1573.95 542.65 C 1571.47 541.14, 1570.29 540.29, 1568.41 538.05 C 1566.53 535.81, 1565.69 534.54, 1564.53 531.43 C 1563.37 528.32, 1562.95 526.47, 1562.61 522.50 C 1562.28 518.53, 1562.33 516.17, 1562.86 511.58 C 1563.40 506.98, 1563.95 504.30, 1565.31 499.53 C 1566.67 494.76, 1567.68 492.07, 1569.67 487.72 C 1571.67 483.36, 1572.99 481.09, 1575.29 477.76 C 1577.59 474.43, 1579.14 473.12, 1581.18 471.06 C 1583.22 469.00, 1584.15 468.41, 1585.47 467.44 C 1586.80 466.47, 1587.16 466.22, 1587.78 466.21 C 1588.41 466.19, 1588.61 466.38, 1588.60 467.36 C 1588.59 468.34, 1588.49 469.06, 1587.74 471.12 C 1586.98 473.17, 1586.61 474.60, 1584.84 477.62 C 1583.07 480.63, 1581.89 482.48, 1578.88 486.18 C 1575.87 489.88, 1573.99 491.95, 1569.81 496.14 C 1565.64 500.32, 1563.14 502.55, 1558.00 507.11 C 1552.85 511.67, 1549.91 514.06, 1544.08 518.92 C 1538.26 523.79, 1535.04 526.31, 1528.87 531.43 C 1522.70 536.55, 1519.34 539.19, 1513.23 544.52 C 1507.13 549.85, 1503.96 552.66, 1498.36 558.07 C 1492.76 563.49, 1489.99 566.30, 1485.23 571.59 C 1480.47 576.87, 1478.17 579.56, 1474.55 584.49 C 1470.94 589.42, 1469.43 591.89, 1467.15 596.22 C 1464.88 600.54, 1463.93 602.54, 1463.16 606.11 C 1462.40 609.68, 1462.47 611.49, 1463.33 614.06 C 1464.19 616.63, 1465.39 617.78, 1467.48 618.98 C 1469.57 620.19, 1471.06 620.42, 1473.78 620.09 C 1476.49 619.76, 1478.09 619.06, 1481.04 617.33 C 1483.99 615.60, 1485.57 614.28, 1488.54 611.45 C 1491.51 608.62, 1493.09 606.86, 1495.88 603.20 C 1498.68 599.53, 1500.10 597.39, 1502.52 593.13 C 1504.94 588.87, 1506.08 586.49, 1507.97 581.91 C 1509.86 577.33, 1510.66 574.84, 1511.96 570.22 C 1513.26 565.60, 1513.73 563.20, 1514.46 558.82 C 1515.18 554.45, 1515.36 552.31, 1515.56 548.34 C 1515.77 544.37, 1515.70 542.50, 1515.47 538.98 C 1515.24 535.46, 1515.02 533.81, 1514.42 530.76 C 1513.82 527.70, 1513.39 526.28, 1512.48 523.70 C 1511.56 521.13, 1510.97 520.00, 1509.84 517.90 C 1508.72 515.79, 1508.11 514.86, 1506.85 513.17 C 1505.59 511.49, 1504.91 510.73, 1503.54 509.46 C 1502.18 508.19, 1501.45 507.70, 1500.01 506.83 C 1498.58 505.96, 1497.86 505.63, 1496.38 505.11 C 1494.90 504.59, 1494.13 504.42, 1492.62 504.25 C 1491.12 504.08, 1490.31 504.14, 1488.85 504.26 C 1487.39 504.38, 1486.66 504.59, 1485.33 504.86 C 1484.00 505.13, 1483.39 505.34, 1482.21 505.62 C 1481.04 505.91, 1480.49 506.07, 1479.47 506.28 C 1478.46 506.49, 1478.06 506.64, 1477.15 506.68 C 1476.23 506.71, 1475.89 506.64, 1474.90 506.46 C 1473.90 506.29, 1473.38 506.10, 1472.16 505.78 C 1470.93 505.46, 1470.29 505.28, 1468.76 504.88 C 1467.23 504.48, 1466.38 504.22, 1464.51 503.78 C 1462.63 503.34, 1461.58 503.09, 1459.37 502.69 C 1457.17 502.28, 1455.96 502.03, 1453.48 501.75 C 1450.99 501.47, 1449.63 501.28, 1446.95 501.28 C 1444.28 501.27, 1442.86 501.31, 1440.11 501.72 C 1437.36 502.12, 1435.93 502.32, 1433.21 503.30 C 1430.48 504.28, 1429.07 504.88, 1426.48 506.63 C 1423.88 508.38, 1422.66 509.55, 1420.25 512.05 C 1417.84 514.54, 1416.65 516.07, 1414.41 519.09 C 1412.18 522.11, 1411.08 524.01, 1409.09 527.16 C 1407.09 530.32, 1405.95 532.06, 1404.42 534.84 C 1402.88 537.63, 1402.10 539.03, 1401.41 541.10 C 1400.72 543.17, 1400.84 544.15, 1400.97 545.19 C 1401.10 546.23, 1401.61 546.50, 1402.08 546.31 C 1402.55 546.13, 1402.90 545.67, 1403.33 544.25 C 1403.77 542.83, 1403.96 541.68, 1404.24 539.21 C 1404.53 536.75, 1404.63 535.04, 1404.74 531.93 C 1404.86 528.82, 1404.98 526.91, 1404.81 523.67 C 1404.64 520.43, 1404.67 518.65, 1403.88 515.73 C 1403.09 512.80, 1402.48 511.29, 1400.85 509.05 C 1399.22 506.81, 1398.04 505.81, 1395.72 504.54 C 1393.40 503.26, 1391.93 502.98, 1389.26 502.66 C 1386.59 502.35, 1385.15 502.42, 1382.34 502.98 C 1379.54 503.53, 1378.00 504.01, 1375.26 505.45 C 1372.52 506.89, 1371.22 507.97, 1368.65 510.17 C 1366.08 512.37, 1364.82 513.74, 1362.42 516.45 C 1360.02 519.16, 1358.83 520.85, 1356.65 523.73 C 1354.48 526.61, 1353.37 528.26, 1351.53 530.86 C 1349.68 533.46, 1348.68 534.73, 1347.43 536.73 C 1346.18 538.73, 1345.85 539.67, 1345.28 540.86 C 1344.71 542.06, 1344.75 542.41, 1344.59 542.69 C 1344.42 542.97, 1344.55 542.89, 1344.45 542.28 C 1344.35 541.67, 1344.28 541.09, 1344.07 539.65 C 1343.86 538.22, 1343.68 537.18, 1343.42 535.11 C 1343.17 533.04, 1343.06 531.68, 1342.80 529.30 C 1342.54 526.93, 1342.40 525.51, 1342.13 523.23 C 1341.86 520.96, 1341.84 519.79, 1341.43 517.91 C 1341.03 516.03, 1340.90 515.08, 1340.11 513.84 C 1339.32 512.60, 1338.53 512.12, 1337.48 511.70 C 1336.42 511.28, 1335.76 511.41, 1334.83 511.74 C 1333.90 512.07, 1333.74 512.34, 1332.82 513.35 C 1331.89 514.37, 1331.53 515.02, 1330.20 516.79 C 1328.87 518.56, 1328.19 519.82, 1326.17 522.22 C 1324.16 524.62, 1323.00 526.17, 1320.13 528.78 C 1317.26 531.39, 1315.48 532.89, 1311.83 535.26 C 1308.18 537.63, 1306.01 538.88, 1301.88 540.64 C 1297.74 542.41, 1295.41 543.20, 1291.17 544.07 C 1286.94 544.94, 1284.60 545.17, 1280.69 545.01 C 1276.78 544.85, 1274.78 544.43, 1271.61 543.25 C 1268.44 542.07, 1266.98 541.13, 1264.84 539.10 C 1262.70 537.07, 1261.83 535.81, 1260.90 533.11 C 1259.97 530.41, 1259.78 528.73, 1260.18 525.60 C 1260.58 522.47, 1261.23 520.54, 1262.90 517.47 C 1264.56 514.40, 1265.97 512.66, 1268.52 510.25 C 1271.06 507.84, 1272.88 506.74, 1275.62 505.41 C 1278.35 504.08, 1279.95 503.96, 1282.18 503.60 C 1284.41 503.24, 1285.38 503.27, 1286.76 503.59 C 1288.13 503.91, 1288.66 504.27, 1289.06 505.20 C 1289.47 506.14, 1289.49 506.83, 1288.79 508.27 C 1288.09 509.72, 1287.47 510.64, 1285.58 512.43 C 1283.68 514.23, 1282.46 515.45, 1279.30 517.26 C 1276.14 519.06, 1274.07 519.94, 1269.76 521.46 C 1265.45 522.98, 1262.92 523.63, 1257.75 524.87 C 1252.58 526.11, 1249.68 526.56, 1243.90 527.65 C 1238.13 528.74, 1234.95 529.15, 1228.87 530.32 C 1222.78 531.48, 1219.53 532.01, 1213.49 533.45 C 1207.44 534.90, 1204.22 535.68, 1198.63 537.53 C 1193.04 539.37, 1190.17 540.46, 1185.53 542.68 C 1180.89 544.90, 1178.61 546.08, 1175.43 548.61 C 1172.25 551.14, 1170.71 552.67, 1169.62 555.33 C 1168.53 557.99, 1168.75 559.80, 1169.97 561.92 C 1171.18 564.04, 1172.55 565.13, 1175.69 565.93 C 1178.84 566.73, 1181.08 566.46, 1185.70 565.92 C 1190.31 565.37, 1193.24 564.77, 1198.75 563.20 C 1204.27 561.64, 1207.64 560.52, 1213.26 558.10 C 1218.89 555.68, 1222.06 554.15, 1226.88 551.10 C 1231.70 548.05, 1234.08 546.29, 1237.38 542.83 C 1240.68 539.37, 1242.13 537.48, 1243.38 533.80 C 1244.64 530.12, 1244.70 527.94, 1243.65 524.41 C 1242.60 520.89, 1241.16 519.10, 1238.13 516.16 C 1235.11 513.21, 1232.84 511.96, 1228.54 509.68 C 1224.24 507.41, 1221.43 506.45, 1216.63 504.77 C 1211.84 503.09, 1208.85 502.41, 1204.57 501.29 C 1200.28 500.17, 1197.96 499.56, 1195.20 499.15 C 1192.45 498.75, 1191.33 499.40, 1190.79 499.28 C 1190.24 499.16, 1190.85 499.53, 1192.47 498.56 C 1194.10 497.60, 1195.76 496.60, 1198.92 494.45 C 1202.09 492.31, 1204.58 490.74, 1208.29 487.81 C 1212.00 484.88, 1214.44 483.18, 1217.47 479.82 C 1220.51 476.46, 1222.13 474.59, 1223.47 471.02 C 1224.81 467.45, 1225.13 465.31, 1224.17 461.98 C 1223.21 458.65, 1221.81 456.89, 1218.68 454.36 C 1215.55 451.82, 1213.14 450.79, 1208.52 449.30 C 1203.91 447.82, 1200.95 447.39, 1195.59 446.93 C 1190.24 446.47, 1187.04 446.52, 1181.75 447.01 C 1176.47 447.50, 1173.54 447.99, 1169.15 449.38 C 1164.77 450.78, 1162.65 451.93, 1159.83 453.96 C 1157.00 456.00, 1156.09 457.58, 1155.02 459.57 C 1153.96 461.56, 1154.21 462.89, 1154.51 463.94 C 1154.81 464.98, 1155.66 465.11, 1156.54 464.79" style="stroke: white; fill: white;"/><path d="M 1662.69,507.12 C 1662.23 506.36, 1661.64 505.80, 1660.02 505.45 C 1658.40 505.09, 1657.15 504.74, 1654.60 505.34 C 1652.06 505.94, 1650.32 506.61, 1647.28 508.44 C 1644.25 510.27, 1642.49 511.77, 1639.43 514.49 C 1636.37 517.22, 1634.63 518.98, 1631.97 522.08 C 1629.31 525.18, 1627.78 526.91, 1626.15 529.99 C 1624.53 533.06, 1623.91 534.83, 1623.85 537.47 C 1623.78 540.11, 1624.34 541.50, 1625.84 543.18 C 1627.33 544.86, 1628.69 545.60, 1631.32 545.89 C 1633.95 546.17, 1635.82 545.85, 1638.99 544.61 C 1642.16 543.36, 1643.90 542.04, 1647.17 539.68 C 1650.44 537.32, 1652.23 535.63, 1655.34 532.78 C 1658.45 529.94, 1660.23 528.11, 1662.72 525.46 C 1665.22 522.81, 1666.56 521.34, 1667.83 519.55 C 1669.11 517.76, 1669.05 516.84, 1669.11 516.51 C 1669.16 516.18, 1668.60 516.58, 1668.12 517.91 C 1667.64 519.23, 1666.90 520.64, 1666.69 523.12 C 1666.49 525.60, 1666.49 527.58, 1667.10 530.31 C 1667.71 533.05, 1668.37 534.66, 1669.75 536.81 C 1671.13 538.95, 1671.98 539.93, 1673.99 541.06 C 1676.00 542.19, 1677.27 542.53, 1679.80 542.45 C 1682.32 542.37, 1683.88 542.05, 1686.62 540.67 C 1689.35 539.29, 1690.70 537.87, 1693.47 535.55 C 1696.25 533.24, 1697.79 531.61, 1700.49 529.09 C 1703.20 526.56, 1704.77 525.05, 1707.01 522.92 C 1709.24 520.79, 1710.30 519.70, 1711.68 518.44 C 1713.05 517.19, 1713.34 516.69, 1713.87 516.65 C 1714.41 516.60, 1714.23 517.04, 1714.36 518.21 C 1714.48 519.37, 1714.25 520.51, 1714.50 522.48 C 1714.74 524.44, 1714.85 525.87, 1715.57 528.02 C 1716.28 530.18, 1716.77 531.48, 1718.06 533.24 C 1719.34 535.00, 1720.14 535.87, 1722.00 536.84 C 1723.86 537.81, 1724.96 538.08, 1727.36 538.07 C 1729.76 538.05, 1731.21 537.79, 1733.99 536.75 C 1736.76 535.71, 1738.25 534.47, 1741.25 532.85 C 1744.25 531.23, 1745.97 530.09, 1748.98 528.64 C 1751.98 527.19, 1753.68 526.50, 1756.28 525.60 C 1758.87 524.71, 1760.08 524.31, 1761.95 524.15 C 1763.81 524.00, 1764.45 524.13, 1765.61 524.83 C 1766.76 525.53, 1766.97 526.24, 1767.72 527.66 C 1768.46 529.08, 1768.62 530.11, 1769.34 531.93 C 1770.06 533.76, 1770.15 535.11, 1771.32 536.80 C 1772.50 538.48, 1773.99 539.92, 1775.22 540.35 C 1776.46 540.79, 1777.28 540.17, 1777.51 538.96 C 1777.74 537.75, 1776.95 536.17, 1776.37 534.30 C 1775.80 532.44, 1775.54 531.52, 1774.63 529.62 C 1773.73 527.73, 1773.25 526.54, 1771.86 524.83 C 1770.48 523.13, 1769.70 522.18, 1767.71 521.10 C 1765.72 520.03, 1764.52 519.57, 1761.90 519.46 C 1759.29 519.35, 1757.68 519.64, 1754.65 520.54 C 1751.63 521.45, 1749.95 522.51, 1746.77 523.98 C 1743.60 525.46, 1741.80 526.52, 1738.78 527.92 C 1735.76 529.31, 1734.06 529.92, 1731.66 530.95 C 1729.27 531.97, 1728.33 532.62, 1726.79 533.04 C 1725.26 533.47, 1724.82 533.54, 1724.00 533.07 C 1723.17 532.61, 1723.06 532.09, 1722.65 530.74 C 1722.25 529.39, 1722.34 528.29, 1721.96 526.32 C 1721.57 524.36, 1721.50 522.94, 1720.73 520.90 C 1719.97 518.87, 1719.43 517.58, 1718.12 516.14 C 1716.81 514.70, 1715.99 514.00, 1714.20 513.70 C 1712.40 513.39, 1711.30 513.55, 1709.15 514.62 C 1707.00 515.70, 1705.85 516.91, 1703.45 519.08 C 1701.04 521.25, 1699.76 523.00, 1697.12 525.47 C 1694.47 527.94, 1692.86 529.44, 1690.20 531.43 C 1687.55 533.42, 1686.02 534.17, 1683.82 535.42 C 1681.63 536.66, 1680.77 537.24, 1679.23 537.65 C 1677.70 538.05, 1677.09 538.04, 1676.15 537.42 C 1675.22 536.80, 1674.96 536.18, 1674.55 534.54 C 1674.14 532.90, 1674.28 531.56, 1674.10 529.22 C 1673.92 526.88, 1674.06 525.22, 1673.65 522.83 C 1673.24 520.45, 1673.00 518.93, 1672.06 517.30 C 1671.12 515.66, 1670.47 514.86, 1668.95 514.66 C 1667.44 514.46, 1666.44 514.79, 1664.50 516.31 C 1662.56 517.82, 1661.69 519.60, 1659.27 522.24 C 1656.84 524.89, 1655.33 526.84, 1652.38 529.54 C 1649.42 532.24, 1647.57 533.77, 1644.49 535.75 C 1641.40 537.74, 1639.57 538.39, 1636.94 539.46 C 1634.31 540.54, 1633.05 540.85, 1631.33 541.13 C 1629.61 541.41, 1629.00 541.50, 1628.35 540.86 C 1627.71 540.22, 1627.70 539.64, 1628.10 537.93 C 1628.51 536.21, 1628.92 534.87, 1630.38 532.28 C 1631.83 529.70, 1632.96 527.84, 1635.39 525.00 C 1637.81 522.17, 1639.56 520.44, 1642.48 518.13 C 1645.41 515.82, 1647.27 514.79, 1650.03 513.44 C 1652.79 512.09, 1654.26 512.04, 1656.28 511.37 C 1658.30 510.70, 1658.93 510.53, 1660.14 510.10 C 1661.35 509.67, 1661.84 509.83, 1662.35 509.23 C 1662.86 508.63, 1663.16 507.87, 1662.69 507.12" style="stroke: white; fill: white;"/><path d="M 1830.71,527.10 C 1830.54 526.17, 1830.11 525.33, 1828.63 524.37 C 1827.16 523.41, 1826.02 522.49, 1823.34 522.29 C 1820.65 522.09, 1818.62 522.33, 1815.20 523.37 C 1811.78 524.42, 1809.71 525.50, 1806.24 527.50 C 1802.77 529.50, 1800.74 530.89, 1797.85 533.37 C 1794.96 535.85, 1793.23 537.27, 1791.79 539.89 C 1790.35 542.51, 1790.15 544.27, 1790.66 546.45 C 1791.18 548.64, 1792.12 549.90, 1794.37 550.82 C 1796.62 551.73, 1798.52 551.89, 1801.89 551.01 C 1805.27 550.12, 1807.30 548.92, 1811.26 546.38 C 1815.21 543.85, 1817.45 542.18, 1821.65 538.34 C 1825.85 534.49, 1828.16 532.12, 1832.26 527.16 C 1836.35 522.21, 1838.50 519.21, 1842.11 513.57 C 1845.72 507.93, 1847.47 504.64, 1850.33 498.96 C 1853.18 493.27, 1854.42 490.13, 1856.38 485.15 C 1858.35 480.17, 1859.48 477.53, 1860.16 474.05 C 1860.83 470.58, 1860.56 468.91, 1859.75 467.80 C 1858.94 466.68, 1857.47 466.71, 1856.11 468.48 C 1854.75 470.26, 1854.12 472.27, 1852.96 476.66 C 1851.80 481.05, 1851.23 484.38, 1850.31 490.43 C 1849.38 496.49, 1848.87 500.33, 1848.36 506.94 C 1847.85 513.56, 1847.58 517.24, 1847.77 523.51 C 1847.95 529.78, 1848.21 532.93, 1849.28 538.28 C 1850.35 543.63, 1851.22 546.08, 1853.11 550.25 C 1855.00 554.42, 1856.27 556.17, 1858.73 559.13 C 1861.19 562.09, 1862.67 563.33, 1865.41 565.05 C 1868.16 566.78, 1870.04 567.17, 1872.45 567.77 C 1874.87 568.37, 1875.93 568.20, 1877.51 568.05 C 1879.10 567.90, 1879.60 567.46, 1880.39 567.02 C 1881.18 566.58, 1881.32 566.30, 1881.46 565.84 C 1881.59 565.38, 1881.36 565.02, 1881.05 564.72 C 1880.74 564.42, 1880.56 564.52, 1879.89 564.35 C 1879.21 564.18, 1878.91 564.14, 1877.68 563.88 C 1876.44 563.62, 1875.69 563.61, 1873.71 563.04 C 1871.72 562.48, 1870.17 562.33, 1867.74 561.05 C 1865.30 559.77, 1863.87 559.08, 1861.51 556.65 C 1859.16 554.22, 1857.86 552.68, 1855.96 548.90 C 1854.06 545.11, 1853.12 542.80, 1852.01 537.71 C 1850.90 532.62, 1850.58 529.54, 1850.40 523.43 C 1850.23 517.33, 1850.48 513.67, 1851.13 507.19 C 1851.78 500.71, 1852.48 496.92, 1853.66 491.02 C 1854.83 485.13, 1855.90 481.96, 1857.01 477.72 C 1858.12 473.49, 1858.96 471.78, 1859.22 469.84 C 1859.48 467.89, 1858.86 467.34, 1858.30 468.00 C 1857.74 468.67, 1857.37 469.93, 1856.43 473.16 C 1855.49 476.38, 1855.29 479.19, 1853.60 484.12 C 1851.91 489.05, 1850.73 492.20, 1848.00 497.81 C 1845.28 503.42, 1843.53 506.67, 1839.96 512.19 C 1836.40 517.71, 1834.25 520.65, 1830.17 525.40 C 1826.08 530.15, 1823.74 532.43, 1819.54 535.93 C 1815.35 539.43, 1813.01 540.86, 1809.20 542.89 C 1805.39 544.92, 1803.28 545.24, 1800.51 546.08 C 1797.73 546.93, 1796.65 547.11, 1795.32 547.10 C 1793.99 547.10, 1793.73 546.95, 1793.87 546.06 C 1794.01 545.17, 1794.59 544.44, 1796.02 542.65 C 1797.46 540.85, 1798.52 539.24, 1801.04 537.08 C 1803.56 534.92, 1805.49 533.48, 1808.63 531.85 C 1811.77 530.22, 1813.81 529.61, 1816.71 528.93 C 1819.61 528.24, 1821.09 528.47, 1823.13 528.43 C 1825.18 528.38, 1825.66 528.61, 1826.94 528.72 C 1828.21 528.83, 1828.74 529.31, 1829.50 528.98 C 1830.25 528.66, 1830.89 528.02, 1830.71 527.10" style="stroke: white; fill: white;"/></svg>